<?xml version="1.0" encoding="UTF-8"?>
<svg id="Layer_1" data-name="Layer 1" xmlns="http://www.w3.org/2000/svg" version="1.1" xmlns:xlink="http://www.w3.org/1999/xlink" viewBox="0 0 100 100">
  <defs>
    <style>
      .cls-1 {
        fill: url(#linear-gradient);
        stroke-width: 0px;
      }
    </style>
    <linearGradient id="linear-gradient" x1="16.2" y1="35.4" x2="87" y2="76.4" gradientTransform="translate(0 102) scale(1 -1)" gradientUnits="userSpaceOnUse">
      <stop offset="0" stop-color="#29387f"/>
      <stop offset=".4" stop-color="#b21e3b"/>
      <stop offset=".7" stop-color="#d59429"/>
      <stop offset="1" stop-color="#97c93d"/>
    </linearGradient>
  </defs>
  <path class="cls-1" d="M5.9,43.8c.9,0,1-.2.9-1v-.4c-.7-3.2.1-4.5,4.7-4.5h1.2l.9,4.6h-1c-.9,0-1,.2-.9,1v.4c.7,3.2-.1,4.5-4.7,4.5h-1.2l-.9-4.6h1ZM14,43.3c0-3.1,2.5-5.5,5.7-5.5s5.7,2.2,5.7,5.5-2.5,5.5-5.7,5.5-5.7-2.2-5.7-5.5ZM20.6,43.3c0-.5-.4-.9-.9-.9s-.9.4-.9.9.4.9.9.9.9-.4.9-.9ZM31.5,43.6h3.7v2h-3.7v3.1h-5v-10.4h8.7l.9,4.7h-4.7v.7h.1ZM44,42.7v5.7h-5v-5.7h-2.7l.9-4.7h8.7l.9,4.7h-2.7ZM52.6,38.1l1.2,2.5,1.4-2.7,1.4,2.7,1.2-2.5h5.5l-6.1,11-2.1-4-2.1,4-6.1-11h5.7ZM66,37.5l7.1,11h-5.8l-1.2-2.1-1.2,2.1h-5.8l7.1-11ZM79,46.5h-.9v1.9h-5v-10.4h6c3.8,0,5.2,1.7,5.2,4.2s-.2,2.2-1,3l2.1,3.2h-5.3l-1-1.9h-.1ZM78.2,41.7v1.6h.4c.6,0,.9-.4.9-.7s-.2-.7-.9-.7h-.4ZM90.6,45.1h4.3l-.7,3.5h-8.7v-10.4h8.7l.7,3.5h-4.3v.7h3.7v2h-3.7v.7h0ZM23,50.8c3,0,5.2,1.9,5.7,4.5l-4.8.7c0-.2-.4-.5-.7-.5s-.9.4-.9.9.4.9.9.9.6-.2.7-.5l4.8.6c-.5,2.6-2.7,4.5-5.7,4.5s-5.7-2.2-5.7-5.5,2.5-5.5,5.7-5.5h0ZM41,51v10.4h-5v-4.2h-1.4v4.2h-5v-10.4h5v4.2h1.4v-4.2h5ZM47.4,51v10.4h-5v-10.4h5ZM58.3,60.1l1.4,2.5h-5.3l-.5-1c-3.1-.2-5.3-2.5-5.3-5.5s2.5-5.5,5.7-5.5,5.7,2.2,5.7,5.5-.6,3-1.6,4ZM53.3,56.2c0,.5.4.9.9.9s.9-.4.9-.9-.4-.9-.9-.9-.9.4-.9.9ZM60.9,51h5v5.1c0,.7.2,1,.6,1s.7-.2.7-1v-5.1h5v4.7c0,4-2.4,6-5.6,6s-5.6-2-5.6-6v-4.7h-.1ZM78.3,58h4.3l-.7,3.5h-8.7v-10.4h8.7l.7,3.5h-4.3v.7h3.7v2h-3.7v.7h0Z"/>
</svg>